<svg width="250" height="250" viewBox="0 0 250 250" fill="none" xmlns="http://www.w3.org/2000/svg">
<path d="M227.591 29.3161C231.728 30.1304 234.21 34.2021 233.383 38.2737L230.901 70.0328L230.073 80.6191L246.62 82.2478L247.448 71.6615L249.93 40.7167C250.757 29.3161 244.138 18.7297 232.555 15.4724L194.497 3.25734L187.051 0V17.101L188.705 17.9154L227.591 29.3161Z" fill="#0070E0"/>
<path d="M221.801 174.268L220.973 182.411L218.491 214.984C218.491 218.242 216.009 221.499 212.7 222.313L186.224 230.457L175.469 233.714L177.951 250.001L191.188 245.929L217.664 237.786C227.592 234.528 234.211 226.385 235.038 216.613L237.52 184.04L238.348 175.896L221.801 174.268Z" fill="#0070E0"/>
<path d="M22.408 29.3161C18.2712 30.9447 15.7891 34.2021 16.6165 38.2737L19.0985 70.0328L19.9259 80.6191L3.3788 82.2478L2.55144 70.8471L0.0693778 39.9024C-0.757977 28.5017 5.86086 17.9154 17.4438 14.658L55.5021 2.443L62.121 0V17.101L61.2936 17.9154L22.408 29.3161Z" fill="#0070E0"/>
<path d="M28.2073 174.268L29.0346 182.411L31.5167 214.984C31.5167 218.242 33.9987 221.499 37.3082 222.313L63.7835 230.457L74.5391 233.714L72.057 250.001L58.8194 245.929L32.344 237.786C22.4158 234.528 15.7969 226.385 14.9696 216.613L12.4875 184.04L11.6602 175.896L28.2073 174.268Z" fill="#0070E0"/>
<path d="M91.9079 110.146C92.7353 110.146 92.7352 110.146 93.5626 110.146C129.966 110.146 156.442 110.146 192.845 110.146C198.637 110.146 202.773 114.217 202.773 119.918C202.773 122.361 202.773 123.989 202.773 126.432C202.773 132.133 198.637 136.204 192.845 136.204C192.018 136.204 192.018 136.204 191.19 136.204C155.614 136.204 129.139 136.204 93.5626 136.204C92.7352 136.204 91.9079 136.204 91.0805 136.204C91.9079 137.019 91.9079 137.019 91.9079 137.019C102.664 147.605 114.246 159.006 125.002 169.592C128.312 172.849 129.139 177.735 126.657 180.993C124.175 184.25 121.693 186.693 118.383 189.136C115.074 191.579 110.11 190.765 106.8 187.507C103.491 184.25 99.3541 180.178 96.0447 176.921C80.3249 161.449 64.6052 145.976 48.8854 130.504C47.2307 128.875 46.4034 128.061 45.576 126.432C43.9213 123.175 44.7487 119.918 48.0581 116.66C51.3675 113.403 55.5043 109.331 58.8137 106.074C74.5335 90.6016 91.0805 74.315 106.8 58.8426C109.282 56.3996 111.764 55.5853 115.074 55.5853C117.556 55.5853 119.211 56.3996 120.038 58.0283C121.693 59.6569 123.347 61.2856 125.002 62.9143C129.139 66.9859 128.312 71.872 125.002 75.9436C115.074 85.7156 105.973 94.6733 96.0447 104.445C95.2173 106.888 92.7353 108.517 91.9079 110.146C91.0805 110.146 91.0805 110.146 91.9079 110.146Z" fill="#0070E0"/>
</svg>
