<?xml version="1.0" encoding="UTF-8" standalone="no"?>
<svg
   xmlns:dc="http://purl.org/dc/elements/1.1/"
   xmlns:cc="http://creativecommons.org/ns#"
   xmlns:rdf="http://www.w3.org/1999/02/22-rdf-syntax-ns#"
   xmlns:svg="http://www.w3.org/2000/svg"
   xmlns="http://www.w3.org/2000/svg"
   xmlns:sodipodi="http://sodipodi.sourceforge.net/DTD/sodipodi-0.dtd"
   xmlns:inkscape="http://www.inkscape.org/namespaces/inkscape"
   inkscape:version="1.0 (4035a4fb49, 2020-05-01)"
   sodipodi:docname="checkin-success-page-icon1.svg"
   id="svg869"
   version="1.1"
   fill="none"
   viewBox="0 0 630 65"
   height="65"
   width="630">
  <metadata
     id="metadata875">
    <rdf:RDF>
      <cc:Work
         rdf:about="">
        <dc:format>image/svg+xml</dc:format>
        <dc:type
           rdf:resource="http://purl.org/dc/dcmitype/StillImage" />
        <dc:title></dc:title>
      </cc:Work>
    </rdf:RDF>
  </metadata>
  <defs
     id="defs873" />
  <sodipodi:namedview
     inkscape:current-layer="svg869"
     inkscape:window-maximized="1"
     inkscape:window-y="-9"
     inkscape:window-x="-9"
     inkscape:cy="186.19365"
     inkscape:cx="-129.01661"
     inkscape:zoom="0.94280904"
     inkscape:pagecheckerboard="true"
     showgrid="false"
     id="namedview871"
     inkscape:window-height="1001"
     inkscape:window-width="1920"
     inkscape:pageshadow="2"
     inkscape:pageopacity="0"
     guidetolerance="10"
     gridtolerance="10"
     objecttolerance="10"
     borderopacity="1"
     bordercolor="#666666"
     pagecolor="#000000" />
  <path
     style="fill:#228d87;fill-opacity:1"
     id="path855"
     fill="white"
     d="M24.7353 0.115831L3.46525 6.74601C2.40091 7.07434 1.48188 7.73812 0.855758 8.63075C0.229636 9.52338 -0.0672413 10.5931 0.012808 11.668L3.01493 51.203C3.089 52.169 3.46402 53.0909 4.09081 53.8478C4.7176 54.6047 5.56692 55.1612 6.52741 55.4445L24.7653 60.8876C25.1386 61.0022 25.5349 61.0296 25.9214 60.9678C26.3079 60.9059 26.6736 60.7566 26.9886 60.5319C27.3036 60.3072 27.5589 60.0137 27.7334 59.6754C27.9079 59.3371 27.9967 58.9637 27.9926 58.5859V2.4031C27.9926 1.77075 27.7342 1.16386 27.2734 0.71402C26.8126 0.264178 26.1865 0.00763832 25.5308 1.96291e-05C25.261 -0.00100457 24.9927 0.0380572 24.7353 0.115831V0.115831ZM20.5923 34.4538C19.0913 34.4538 17.9054 32.7166 17.9054 30.5596C17.9054 28.4027 19.1063 26.651 20.5923 26.651C22.0784 26.651 23.2642 28.4027 23.2642 30.5596C23.2642 32.7166 22.0634 34.4538 20.5923 34.4538Z" />
  <path
     id="path857"
     fill="#F4F4F4"
     d="M27.9922 3.48926L35.7677 55.141L27.9922 57.5006V3.48926Z"
     opacity="0.2" />
  <path
     id="path859"
     fill="white"
     d="M0.0078125 11.667L3.00993 51.202C3.08401 52.168 3.45902 53.0899 4.08581 53.8468C4.71261 54.6037 5.56192 55.1603 6.52241 55.4435L24.7603 60.8867L15.4387 53.1563C11.7853 50.1253 9.19049 46.081 8.00846 41.5752L0.0078125 11.667Z"
     opacity="0.2" />
  <path
     style="fill:#228d87;fill-opacity:1"
     id="path861"
     fill="white"
     d="M45.5397 12.2749C45.9033 12.3885 46.2159 12.6182 46.426 12.9261C46.6361 13.2339 46.7312 13.6017 46.6955 13.9687L46.1852 20.0922L46.005 22.2057L49.2774 22.4808L49.4575 20.3527L49.9829 14.2292C50.0716 13.1495 49.7807 12.0724 49.1571 11.1716C48.5335 10.2708 47.6135 9.59873 46.5454 9.26384L38.905 6.88971L37.5391 6.48438V9.81394L37.8243 9.9008L45.5397 12.2749Z" />
  <path
     style="fill:#228d87;fill-opacity:1"
     id="path863"
     fill="white"
     d="M44.4455 40.3887L44.3104 41.9811L43.77 48.2928C43.7495 48.6199 43.6266 48.9334 43.4176 49.1918C43.2085 49.4502 42.9232 49.6415 42.5992 49.7404L37.3905 51.3328L35.2891 51.9553L35.7694 55.1401L38.3812 54.3439L43.5449 52.766C44.4909 52.4815 45.3274 51.9316 45.9477 51.1864C46.5681 50.4412 46.9439 49.5345 47.0273 48.5823L47.5527 42.2706L47.7028 40.6637L44.4455 40.3887Z" />
  <path
     style="fill:#228d87;fill-opacity:1"
     id="path865"
     fill="white"
     d="M98.545 39.935C98.545 41.7683 98.105 43.4733 97.225 45.05C96.345 46.6267 95.0067 47.91 93.21 48.9C91.4133 49.89 89.195 50.385 86.555 50.385C83.9883 50.385 81.6967 49.9267 79.68 49.01C77.7 48.0567 76.105 46.7733 74.895 45.16C73.7217 43.51 73.0433 41.64 72.86 39.55H78.195C78.305 40.65 78.6717 41.7317 79.295 42.795C79.955 43.8217 80.8717 44.6833 82.045 45.38C83.255 46.04 84.7033 46.37 86.39 46.37C88.59 46.37 90.2767 45.7833 91.45 44.61C92.6233 43.4367 93.21 41.9333 93.21 40.1C93.21 38.5233 92.7883 37.24 91.945 36.25C91.1383 35.26 90.13 34.49 88.92 33.94C87.71 33.3533 86.06 32.73 83.97 32.07C81.5133 31.2633 79.5333 30.5117 78.03 29.815C76.5633 29.0817 75.2983 28 74.235 26.57C73.2083 25.14 72.695 23.2517 72.695 20.905C72.695 18.8883 73.1717 17.11 74.125 15.57C75.115 14.03 76.5083 12.8383 78.305 11.995C80.1383 11.1517 82.2833 10.73 84.74 10.73C88.5533 10.73 91.5783 11.665 93.815 13.535C96.0517 15.3683 97.3533 17.715 97.72 20.575H92.33C92.0367 19.035 91.2483 17.6783 89.965 16.505C88.6817 15.3317 86.94 14.745 84.74 14.745C82.7233 14.745 81.11 15.2767 79.9 16.34C78.69 17.3667 78.085 18.8333 78.085 20.74C78.085 22.2433 78.47 23.4717 79.24 24.425C80.0467 25.3417 81.0367 26.075 82.21 26.625C83.3833 27.1383 84.9967 27.725 87.05 28.385C89.5433 29.1917 91.5417 29.9617 93.045 30.695C94.585 31.4283 95.8867 32.5467 96.95 34.05C98.0133 35.5167 98.545 37.4783 98.545 39.935ZM117.65 19.42C120.583 19.42 123.058 20.1533 125.075 21.62C127.128 23.0867 128.558 25.0483 129.365 27.505V19.805H134.37V50H129.365V42.3C128.558 44.7567 127.128 46.7183 125.075 48.185C123.058 49.6517 120.583 50.385 117.65 50.385C114.973 50.385 112.59 49.7617 110.5 48.515C108.41 47.2683 106.76 45.49 105.55 43.18C104.376 40.8333 103.79 38.0833 103.79 34.93C103.79 31.7767 104.376 29.0267 105.55 26.68C106.76 24.3333 108.41 22.5367 110.5 21.29C112.59 20.0433 114.973 19.42 117.65 19.42ZM119.08 23.875C116 23.875 113.525 24.865 111.655 26.845C109.821 28.7883 108.905 31.4833 108.905 34.93C108.905 38.3767 109.821 41.09 111.655 43.07C113.525 45.0133 116 45.985 119.08 45.985C121.06 45.985 122.82 45.5267 124.36 44.61C125.936 43.6933 127.165 42.41 128.045 40.76C128.925 39.0733 129.365 37.13 129.365 34.93C129.365 32.73 128.925 30.7867 128.045 29.1C127.165 27.4133 125.936 26.13 124.36 25.25C122.82 24.3333 121.06 23.875 119.08 23.875ZM155.7 12.655C153.024 12.6183 151.154 13.0767 150.09 14.03C149.064 14.9833 148.55 16.6333 148.55 18.98V19.805H155.7V24.205H148.55V50H143.545V24.205H139.2V19.805H143.545V18.595C143.545 11.3717 147.597 7.925 155.7 8.255V12.655ZM188.909 33.225C188.909 34.2883 188.836 35.205 188.689 35.975H164.544C164.654 39.4217 165.626 42.0067 167.459 43.73C169.329 45.4533 171.602 46.315 174.279 46.315C176.699 46.315 178.716 45.71 180.329 44.5C181.979 43.2533 182.987 41.6033 183.354 39.55H188.689C188.322 41.64 187.497 43.51 186.214 45.16C184.967 46.81 183.336 48.0933 181.319 49.01C179.302 49.9267 177.029 50.385 174.499 50.385C171.602 50.385 169.036 49.7617 166.799 48.515C164.562 47.2683 162.802 45.49 161.519 43.18C160.272 40.8333 159.649 38.0833 159.649 34.93C159.649 31.7767 160.272 29.0267 161.519 26.68C162.802 24.3333 164.562 22.5367 166.799 21.29C169.036 20.0433 171.602 19.42 174.499 19.42C177.432 19.42 179.981 20.0433 182.144 21.29C184.344 22.5367 186.012 24.205 187.149 26.295C188.322 28.385 188.909 30.695 188.909 33.225ZM183.849 33.555C183.959 31.3183 183.592 29.4483 182.749 27.945C181.906 26.4417 180.751 25.3233 179.284 24.59C177.817 23.8567 176.222 23.49 174.499 23.49C171.749 23.49 169.439 24.3517 167.569 26.075C165.699 27.7617 164.691 30.255 164.544 33.555H183.849ZM202.715 17.33V27.395H216.465V33.335H202.715V43.785H218.115V50H194.96V11.17H218.115V17.33H202.715ZM242.007 19.09C245.527 19.09 248.332 20.245 250.422 22.555C252.512 24.865 253.557 28.11 253.557 32.29V50H245.857V33.17C245.857 30.75 245.234 28.88 243.987 27.56C242.74 26.2033 241.035 25.525 238.872 25.525C236.672 25.525 234.912 26.24 233.592 27.67C232.272 29.1 231.612 31.1533 231.612 33.83V50H223.857V19.53H231.612V25.635C232.419 23.5817 233.739 21.9867 235.572 20.85C237.442 19.6767 239.587 19.09 242.007 19.09ZM276.66 43.345V50H272.59C269.18 50 266.559 49.175 264.725 47.525C262.929 45.875 262.03 43.125 262.03 39.275V26.075H257.795V19.53H262.03V11.995H269.785V19.53H276.605V26.075H269.785V39.385C269.785 40.8517 270.079 41.8783 270.665 42.465C271.252 43.0517 272.242 43.345 273.635 43.345H276.66ZM289.996 25.36C291.132 23.4167 292.636 21.895 294.506 20.795C296.376 19.6583 298.466 19.09 300.776 19.09V27.395H298.521C292.837 27.395 289.996 30.035 289.996 35.315V50H282.241V19.53H289.996V25.36ZM310.293 19.53L318.598 40.21L326.298 19.53H334.823L316.178 64.52H307.598L314.473 49.12L301.658 19.53H310.293Z" />
  <path
     style="fill:#228d87;fill-opacity:1"
     id="path867"
     fill="white"
     d="M377.01 10.73C381.96 10.73 386.048 12.0317 389.275 14.635C392.538 17.2383 394.647 20.7583 395.6 25.195H385.645C384.912 23.3983 383.775 21.9867 382.235 20.96C380.732 19.9333 378.935 19.42 376.845 19.42C374.095 19.42 371.877 20.4283 370.19 22.445C368.503 24.4617 367.66 27.1567 367.66 30.53C367.66 33.9033 368.503 36.5983 370.19 38.615C371.877 40.595 374.095 41.585 376.845 41.585C378.935 41.585 380.732 41.0717 382.235 40.045C383.775 39.0183 384.912 37.625 385.645 35.865H395.6C394.647 40.265 392.538 43.785 389.275 46.425C386.048 49.0283 381.96 50.33 377.01 50.33C373.233 50.33 369.915 49.505 367.055 47.855C364.195 46.1683 361.977 43.8217 360.4 40.815C358.86 37.8083 358.09 34.38 358.09 30.53C358.09 26.68 358.86 23.2517 360.4 20.245C361.977 17.2383 364.195 14.91 367.055 13.26C369.915 11.5733 373.233 10.73 377.01 10.73ZM420.341 18.98C423.861 18.98 426.648 20.1533 428.701 22.5C430.791 24.8467 431.836 28.0733 431.836 32.18V50H422.431V33.28C422.431 31.2267 421.881 29.6317 420.781 28.495C419.718 27.3217 418.288 26.735 416.491 26.735C414.584 26.735 413.063 27.34 411.926 28.55C410.826 29.76 410.276 31.4833 410.276 33.72V50H400.871V9.3H410.276V24.92C411.156 23.0867 412.458 21.6383 414.181 20.575C415.941 19.5117 417.994 18.98 420.341 18.98ZM467.189 33.83C467.189 34.6 467.097 35.4433 466.914 36.36H445.629C445.739 38.67 446.326 40.3383 447.389 41.365C448.452 42.355 449.809 42.85 451.459 42.85C452.852 42.85 454.007 42.5017 454.924 41.805C455.841 41.1083 456.446 40.21 456.739 39.11H466.694C466.291 41.2733 465.411 43.2167 464.054 44.94C462.697 46.6267 460.974 47.965 458.884 48.955C456.794 49.9083 454.466 50.385 451.899 50.385C448.892 50.385 446.216 49.7617 443.869 48.515C441.559 47.2317 439.744 45.3983 438.424 43.015C437.104 40.6317 436.444 37.845 436.444 34.655C436.444 31.4283 437.086 28.6417 438.369 26.295C439.689 23.9117 441.522 22.0967 443.869 20.85C446.216 19.5667 448.892 18.925 451.899 18.925C454.942 18.925 457.619 19.5483 459.929 20.795C462.239 22.0417 464.017 23.8017 465.264 26.075C466.547 28.3117 467.189 30.8967 467.189 33.83ZM457.674 32.4C457.711 30.3833 457.161 28.88 456.024 27.89C454.924 26.8633 453.549 26.35 451.899 26.35C450.176 26.35 448.746 26.8633 447.609 27.89C446.472 28.9167 445.831 30.42 445.684 32.4H457.674ZM485.952 18.925C489.912 18.925 493.23 20.025 495.907 22.225C498.583 24.3883 500.27 27.3767 500.967 31.19H491.012C490.718 29.87 490.113 28.8433 489.197 28.11C488.28 27.3767 487.125 27.01 485.732 27.01C484.082 27.01 482.725 27.67 481.662 28.99C480.598 30.2733 480.067 32.1617 480.067 34.655C480.067 37.1483 480.598 39.055 481.662 40.375C482.725 41.6583 484.082 42.3 485.732 42.3C487.125 42.3 488.28 41.9333 489.197 41.2C490.113 40.4667 490.718 39.44 491.012 38.12H500.967C500.27 41.9333 498.583 44.94 495.907 47.14C493.23 49.3033 489.912 50.385 485.952 50.385C482.945 50.385 480.268 49.7617 477.922 48.515C475.612 47.2317 473.797 45.3983 472.477 43.015C471.157 40.6317 470.497 37.845 470.497 34.655C470.497 31.4283 471.138 28.6417 472.422 26.295C473.742 23.9117 475.575 22.0967 477.922 20.85C480.268 19.5667 482.945 18.925 485.952 18.925ZM524.466 50L515.281 36.965V50H505.876V9.3H515.281V31.63L524.466 19.31H535.521L523.146 34.655L535.796 50H524.466ZM560.57 26.79V34.6H536.315V26.79H560.57ZM568.214 10.675C568.214 9.245 568.727 8.07167 569.754 7.155C570.78 6.20166 572.137 5.725 573.824 5.725C575.51 5.725 576.867 6.20166 577.894 7.155C578.92 8.07167 579.434 9.245 579.434 10.675C579.434 12.0683 578.92 13.2417 577.894 14.195C576.867 15.1117 575.51 15.57 573.824 15.57C572.137 15.57 570.78 15.1117 569.754 14.195C568.727 13.2417 568.214 12.0683 568.214 10.675ZM578.499 19.31V50H569.094V19.31H578.499ZM604.462 18.98C607.982 18.98 610.769 20.1533 612.822 22.5C614.912 24.8467 615.957 28.0733 615.957 32.18V50H606.552V33.28C606.552 31.2267 606.002 29.6317 604.902 28.495C603.839 27.3217 602.409 26.735 600.612 26.735C598.705 26.735 597.184 27.34 596.047 28.55C594.947 29.76 594.397 31.4833 594.397 33.72V50H584.992V19.31H594.397V24.92C595.277 23.0867 596.579 21.6383 598.302 20.575C600.062 19.5117 602.115 18.98 604.462 18.98Z" />
</svg>
