<svg id="Layer_1" data-name="Layer 1" xmlns="http://www.w3.org/2000/svg" viewBox="0 0 215.82 42.13"><defs><style>.cls-1{fill:#ff6565;}.cls-2{fill:#a73a36;}.cls-2,.cls-3{opacity:0.2;isolation:isolate;}.cls-3{fill:#912424;}.cls-4{fill:#ca3f3c;}</style></defs><title>SafeEntry_logo_inline</title><path class="cls-1" d="M16.47.08,2.3,4.66A3.32,3.32,0,0,0,0,8.06L2,35.37A3.32,3.32,0,0,0,4.34,38.3l12.15,3.76a1.65,1.65,0,0,0,2.15-1.59V1.66A1.66,1.66,0,0,0,17,0,1.75,1.75,0,0,0,16.47.08ZM13.71,23.8c-1,0-1.79-1.2-1.79-2.69s.8-2.7,1.79-2.7,1.78,1.21,1.78,2.7S14.69,23.8,13.71,23.8Z"/><polygon class="cls-2" points="18.64 2.41 23.82 38.09 18.64 39.72 18.64 2.41"/><path class="cls-3" d="M0,8.06,2,35.37A3.32,3.32,0,0,0,4.34,38.3l12.15,3.76-6.21-5.34a15.6,15.6,0,0,1-4.95-8Z"/><path class="cls-4" d="M30.33,8.48a1.12,1.12,0,0,1,.77,1.17l-.34,4.23-.12,1.46,2.18.19.12-1.47.35-4.23A3.33,3.33,0,0,0,31,6.4L25.91,4.76,25,4.48v2.3l.19.06Z"/><path class="cls-4" d="M29.6,27.9,29.51,29l-.36,4.36a1.12,1.12,0,0,1-.78,1L24.9,35.46l-1.4.43.32,2.2,1.74-.55L29,36.45a3.32,3.32,0,0,0,2.32-2.89l.35-4.36.1-1.11Z"/><path class="cls-1" d="M50,29.83l1.73-1.73a8.58,8.58,0,0,0,6.89,3.63,5.12,5.12,0,0,0,5.71-4.43l0-.42c0-3.22-3-4.49-6-5.79-3.58-1.51-7-3.06-7-7.44a6.68,6.68,0,0,1,6.61-6.76,5.82,5.82,0,0,1,.59,0,9.52,9.52,0,0,1,7.42,3.44L64.37,11.9a7.33,7.33,0,0,0-5.85-2.8,4.5,4.5,0,0,0-4.92,4c0,.13,0,.25,0,.37,0,3.19,3,4.37,6.07,5.67,3.4,1.41,7,3,7,7.65A7.13,7.13,0,0,1,59.48,34a6.56,6.56,0,0,1-.76,0A11.59,11.59,0,0,1,50,29.83Z"/><path class="cls-1" d="M70.16,24.49a9.36,9.36,0,0,1,9.19-9.4,8.76,8.76,0,0,1,7.51,4V15.43h2.23V33.58H86.86V30a8.79,8.79,0,0,1-7.51,4A9.37,9.37,0,0,1,70.16,24.49Zm16.7,0a7.24,7.24,0,1,0,0,.06Z"/><path class="cls-1" d="M98.24,12.19v3.24h4.92v2H98.24V33.58H96V17.45H93v-2H96V12a4.7,4.7,0,0,1,4.35-5,3.11,3.11,0,0,1,.53,0,7.93,7.93,0,0,1,2.27.37V9.37a5.25,5.25,0,0,0-2-.42,2.9,2.9,0,0,0-3,2.82A3,3,0,0,0,98.24,12.19Z"/><path class="cls-1" d="M123.79,24.84H107a7.35,7.35,0,0,0,13.59,3.57l1.91.8a9.31,9.31,0,0,1-8.13,4.72,9.42,9.42,0,1,1,9.41-9.66ZM107.19,23h14.32a7.2,7.2,0,0,0-7.12-5.89,7.28,7.28,0,0,0-7.2,5.89Z"/><path class="cls-4" d="M133.66,11.8v6.39H143v4.49h-9.35V29h10.61v4.54H128.55V7.25h15.72V11.8Z"/><path class="cls-4" d="M165.93,22.05V33.58H161V22.92c0-2.9-1.36-3.74-3.24-3.74-2.08,0-3.59,1.32-3.6,4.08V33.58h-4.91V15.43h4.91V18a6.42,6.42,0,0,1,5.48-2.89C163.53,15.09,165.93,17.5,165.93,22.05Z"/><path class="cls-4" d="M176.62,18.84v8.54c0,1.66.91,2.45,2.21,2.45h1.87v3.75h-3.09A5.27,5.27,0,0,1,171.74,29a5.08,5.08,0,0,1,0-1V18.84h-2.86V15.43h2.86v-5h4.9v5h4.14v3.41Z"/><path class="cls-4" d="M195.79,15.26v4.66c-3.8,0-6,1.37-6,5v8.67h-4.89V15.43h4.67v3.48A7.61,7.61,0,0,1,195.79,15.26Z"/><path class="cls-4" d="M215.82,15.43,205.14,42.12h-5l3.81-9.62-7-17.07h5.37l4.19,12.45,4.19-12.45Z"/></svg>