<?xml version="1.0" encoding="UTF-8" standalone="no"?>
<svg
   xmlns:dc="http://purl.org/dc/elements/1.1/"
   xmlns:cc="http://creativecommons.org/ns#"
   xmlns:rdf="http://www.w3.org/1999/02/22-rdf-syntax-ns#"
   xmlns:svg="http://www.w3.org/2000/svg"
   xmlns="http://www.w3.org/2000/svg"
   xmlns:sodipodi="http://sodipodi.sourceforge.net/DTD/sodipodi-0.dtd"
   xmlns:inkscape="http://www.inkscape.org/namespaces/inkscape"
   inkscape:version="1.0 (4035a4fb49, 2020-05-01)"
   sodipodi:docname="successpage-tickblue-icon.svg"
   id="svg10"
   version="1.1"
   fill="none"
   viewBox="0 0 500 250"
   height="250"
   width="500">
  <metadata
     id="metadata16">
    <rdf:RDF>
      <cc:Work
         rdf:about="">
        <dc:format>image/svg+xml</dc:format>
        <dc:type
           rdf:resource="http://purl.org/dc/dcmitype/StillImage" />
        <dc:title></dc:title>
      </cc:Work>
    </rdf:RDF>
  </metadata>
  <defs
     id="defs14" />
  <sodipodi:namedview
     inkscape:current-layer="svg10"
     inkscape:window-maximized="1"
     inkscape:window-y="-9"
     inkscape:window-x="-9"
     inkscape:cy="125"
     inkscape:cx="250"
     inkscape:zoom="2.416"
     showgrid="false"
     id="namedview12"
     inkscape:window-height="1001"
     inkscape:window-width="1920"
     inkscape:pageshadow="2"
     inkscape:pageopacity="0"
     guidetolerance="10"
     gridtolerance="10"
     objecttolerance="10"
     borderopacity="1"
     bordercolor="#666666"
     pagecolor="#ffffff" />
  <path
     style="fill:#eff9fa;fill-opacity:1"
     id="path2"
     stroke-width="12"
     stroke="white"
     fill="#0070E0"
     d="M125 6H375C440.722 6 494 59.2781 494 125C494 190.722 440.722 244 375 244H125C59.2781 244 6 190.722 6 125C6 59.2781 59.2781 6 125 6Z" />
  <path
     style="fill:#228d87;fill-opacity:1"
     id="path4"
     fill="white"
     d="M146.044 92.9V73.1H184.144V179H161.944V92.9H146.044Z" />
  <path
     style="fill:#228d87;fill-opacity:1"
     id="path6"
     fill="white"
     d="M328 138C309.3 138 294 121.6 294 101.556V92.4444C294 72.4 309.3 56 328 56C346.7 56 362 72.4 362 92.4444V101.556C362 121.6 346.7 138 328 138Z" />
  <path
     style="fill:#228d87;fill-opacity:1"
     id="path8"
     fill="white"
     d="M343.357 150H307.643C282.643 150 263 169.36 263 194H388C388 169.36 368.357 150 343.357 150Z" />
</svg>
