<svg width="500" height="250" viewBox="0 0 500 250" fill="none" xmlns="http://www.w3.org/2000/svg">
<path d="M125 6H375C440.722 6 494 59.2781 494 125C494 190.722 440.722 244 375 244H125C59.2781 244 6 190.722 6 125C6 59.2781 59.2781 6 125 6Z" fill="#0070E0" stroke="white" stroke-width="12"/>
<path d="M146.044 92.9V73.1H184.144V179H161.944V92.9H146.044Z" fill="white"/>
<path d="M328 138C309.3 138 294 121.6 294 101.556V92.4444C294 72.4 309.3 56 328 56C346.7 56 362 72.4 362 92.4444V101.556C362 121.6 346.7 138 328 138Z" fill="white"/>
<path d="M343.357 150H307.643C282.643 150 263 169.36 263 194H388C388 169.36 368.357 150 343.357 150Z" fill="white"/>
</svg>
